<svg width="16" height="16" viewBox="0 0 16 16" fill="none" xmlns="http://www.w3.org/2000/svg">
<g id="Icon">
<path id="Vector" d="M10.4688 16C10.5209 16 10.5782 15.9922 10.6407 15.9766C10.7032 15.9609 10.7605 15.9375 10.8126 15.9062C11.0417 15.8021 11.1954 15.6354 11.2735 15.4062C11.3516 15.1771 11.3386 14.9479 11.2344 14.7188C11.2344 14.7188 11.1459 14.5104 10.9688 14.0938C10.8021 13.6875 10.6068 13.2005 10.3829 12.6328C10.1589 12.0651 9.94276 11.4844 9.73443 10.8906C9.5261 10.3073 9.38547 9.83854 9.31255 9.48438C9.26047 9.24479 9.2162 8.86198 9.17974 8.33594C9.14328 7.8099 9.11985 7.39583 9.10943 7.09375C9.10943 6.97917 9.13547 6.88021 9.18755 6.79688C9.23964 6.71354 9.31255 6.65625 9.4063 6.625L13.0313 5.5C13.2501 5.44792 13.4167 5.3099 13.5313 5.08594C13.6459 4.86198 13.6771 4.63542 13.6251 4.40625C13.5626 4.17708 13.4245 4.0026 13.211 3.88281C12.9974 3.76302 12.7813 3.73438 12.5626 3.79688C12.5626 3.79688 12.3803 3.85417 12.0157 3.96875C11.6511 4.08333 11.2214 4.21094 10.7266 4.35156C10.2318 4.49219 9.72922 4.61979 9.2188 4.73438C8.70839 4.85938 8.30214 4.92188 8.00005 4.92188C7.69797 4.92188 7.29693 4.86458 6.79693 4.75C6.28651 4.63542 5.78651 4.50781 5.29693 4.36719C4.80735 4.22656 4.38026 4.09896 4.01568 3.98438C3.66151 3.86979 3.48443 3.8125 3.48443 3.8125C3.26568 3.76042 3.04693 3.78385 2.82818 3.88281C2.60943 3.98177 2.4636 4.14583 2.39068 4.375C2.31776 4.61458 2.3386 4.84635 2.45318 5.07031C2.56776 5.29427 2.74485 5.4375 2.98443 5.5L6.60943 6.625C6.70318 6.65625 6.7787 6.71354 6.83599 6.79688C6.89328 6.88021 6.91672 6.97396 6.9063 7.07812C6.88547 7.38021 6.85943 7.79688 6.82818 8.32812C6.79693 8.85938 6.75526 9.24479 6.70318 9.48438C6.63026 9.83854 6.48964 10.3073 6.2813 10.8906C6.07297 11.4844 5.85683 12.0625 5.63287 12.625C5.40891 13.1875 5.2136 13.6771 5.04693 14.0938C4.86985 14.5104 4.7813 14.7188 4.7813 14.7188C4.67714 14.9479 4.66933 15.1771 4.75787 15.4062C4.84641 15.6354 4.98964 15.8021 5.18755 15.9062C5.25005 15.9375 5.30995 15.9609 5.36724 15.9766C5.42453 15.9922 5.48443 16 5.54693 16C5.7136 16 5.86724 15.9557 6.00787 15.8672C6.14849 15.7786 6.25005 15.651 6.31255 15.4844L8.04693 11.8281L9.70318 15.5156C9.7761 15.6615 9.88026 15.7786 10.0157 15.8672C10.1511 15.9557 10.3021 16 10.4688 16ZM9.87505 1.875C9.87505 2.39583 9.69276 2.84115 9.32818 3.21094C8.9636 3.58073 8.52089 3.76562 8.00005 3.76562C7.47922 3.76562 7.03651 3.58333 6.67193 3.21875C6.30735 2.85417 6.12505 2.40625 6.12505 1.875C6.12505 1.35417 6.30735 0.911458 6.67193 0.546875C7.03651 0.182292 7.47922 0 8.00005 0C8.52089 0 8.9636 0.182292 9.32818 0.546875C9.69276 0.911458 9.87505 1.35417 9.87505 1.875Z" fill="black"/>
</g>
</svg>
