<svg width="25" height="24" viewBox="0 0 25 24" fill="none" xmlns="http://www.w3.org/2000/svg">
<g id="Icon">
<path id="Vector" d="M12.1099 1.99219C11.2036 1.99219 10.3599 2.16406 9.57861 2.50781C8.78174 2.85156 8.09033 3.31641 7.50439 3.90234C6.91846 4.48828 6.45361 5.17969 6.10986 5.97656C5.76611 6.77344 5.59424 7.61719 5.59424 8.50781C5.59424 9.16406 5.69971 9.76172 5.91064 10.3008C6.12158 10.8398 6.42236 11.5156 6.81299 12.3281L12.1099 21.0703L17.4067 12.3281C17.7974 11.5156 18.0981 10.8398 18.3091 10.3008C18.52 9.76172 18.6255 9.16406 18.6255 8.50781C18.6255 7.61719 18.4536 6.77344 18.1099 5.97656C17.7661 5.17969 17.3013 4.48828 16.7153 3.90234C16.1294 3.31641 15.438 2.85156 14.6411 2.50781C13.8599 2.16406 13.0161 1.99219 12.1099 1.99219ZM3.60205 8.50781C3.60205 7.33594 3.8208 6.23438 4.2583 5.20312C4.71143 4.17188 5.3208 3.26953 6.08643 2.49609C6.85205 1.72266 7.7583 1.11719 8.80518 0.679688C9.83643 0.226562 10.938 0 12.1099 0C13.2817 0 14.3833 0.226562 15.4146 0.679688C16.4614 1.11719 17.3677 1.72266 18.1333 2.49609C18.8989 3.26953 19.5083 4.17188 19.9614 5.20312C20.3989 6.23438 20.6177 7.33594 20.6177 8.50781C20.6177 9.44531 20.4771 10.2695 20.1958 10.9805C19.9146 11.6914 19.5786 12.4453 19.188 13.2422L19.1411 13.2891L12.9771 23.5078C12.8833 23.6641 12.7583 23.7852 12.6021 23.8711C12.4458 23.957 12.2817 24 12.1099 24C11.938 24 11.7739 23.957 11.6177 23.8711C11.4614 23.7852 11.3364 23.6641 11.2427 23.5078L5.07861 13.2891L5.03174 13.2422C4.64111 12.4453 4.30518 11.6914 4.02393 10.9805C3.74268 10.2695 3.60205 9.44531 3.60205 8.50781ZM12.1099 7.10156C11.7192 7.10156 11.3872 7.23828 11.1138 7.51172C10.8403 7.78516 10.7036 8.11719 10.7036 8.50781C10.7036 8.89844 10.8403 9.23438 11.1138 9.51562C11.3872 9.79688 11.7192 9.9375 12.1099 9.9375C12.5005 9.9375 12.8325 9.79688 13.106 9.51562C13.3794 9.23438 13.5161 8.89844 13.5161 8.50781C13.5161 8.11719 13.3794 7.78516 13.106 7.51172C12.8325 7.23828 12.5005 7.10156 12.1099 7.10156ZM8.68799 8.50781C8.68799 7.57031 9.02393 6.76562 9.6958 6.09375C10.3677 5.42188 11.1724 5.08594 12.1099 5.08594C13.0474 5.08594 13.8521 5.42188 14.5239 6.09375C15.1958 6.76562 15.5317 7.57031 15.5317 8.50781C15.5317 9.46094 15.1958 10.2695 14.5239 10.9336C13.8521 11.5977 13.0474 11.9297 12.1099 11.9297C11.1724 11.9297 10.3677 11.5977 9.6958 10.9336C9.02393 10.2695 8.68799 9.46094 8.68799 8.50781Z" fill="white"/>
</g>
</svg>
