<svg width="249" height="40" viewBox="0 0 249 40" fill="none" xmlns="http://www.w3.org/2000/svg">
<g id="logo-white-large.svg" clip-path="url(#clip0_18_1679)">
<path id="Vector" fill-rule="evenodd" clip-rule="evenodd" d="M145.17 8.58407L145.163 8.58016C146.096 7.56149 147.129 6.47962 148.211 5.43874C146.895 4.79704 145.679 4.06968 144.503 3.36603C141.954 1.84134 139.591 0.428001 136.795 0.238861C134.626 0.104621 132.455 0.463499 130.445 1.28855C130.445 1.28855 129.358 -0.186991 126.011 0.291158C122.664 0.769307 112.354 5.07639 103.568 19.1221C95.6257 31.8192 99.3575 39.0997 105.062 39.0213C111.244 38.9354 117.124 32.062 119.119 26.3952C121.113 20.7283 118.76 19.193 116.952 19.3387C114.954 19.5068 111.423 21.2849 109.481 25.2147C107.538 29.1445 107.538 31.5651 107.538 31.5651C108.332 30.7322 109.196 29.9687 110.12 29.2827C110.951 28.6335 111.867 28.1006 112.843 27.6989C113.071 26.6835 113.411 25.6963 113.855 24.7553C114.558 23.2909 115.671 21.7668 117.045 21.4232C119.836 20.7246 118.499 25.8124 116.448 29.1296C115.346 30.9002 111.435 36.0216 108.076 36.0216C104.718 36.0216 104.076 32.7867 104.782 29.7497C105.488 26.7127 106.47 22.8725 111.379 15.8796C116.287 8.88663 121.595 4.74019 124.67 3.00317C127.826 1.21384 129.111 1.9983 129.111 1.9983C129.111 1.9983 125.081 4.47123 122.787 7.45967C120.598 10.3137 119.287 13.5225 120.303 15.0951C121.274 16.5931 124.685 16.623 128.446 11.199C132.159 5.84218 131.226 2.65576 131.226 2.65576C131.47 2.57628 131.72 2.51387 131.973 2.46898C133.784 2.22617 135.234 2.70806 137.475 3.8586C138.568 4.4199 139.641 5.13884 140.787 5.90672C142.102 6.78809 143.514 7.73417 145.163 8.58016L145.159 8.58407H145.17ZM129.955 3.07041C129.955 3.07041 127.565 4.02297 124.785 7.08611C122.006 10.1493 120.385 13.5972 121.584 14.5087C122.044 14.8561 123.104 14.9158 125.032 13.1825C126.809 11.6389 128.204 9.7043 129.107 7.53064C130.28 4.67071 129.995 3.26862 129.959 3.08954C129.957 3.07869 129.955 3.07233 129.955 3.07041Z" fill="white"/>
<path id="Vector_2" d="M150.013 10.3194L150.012 10.3213C156.541 11.6138 162.26 7.56818 165.301 4.12401C166.411 2.89147 167.365 1.52784 168.144 0.0634766C166.759 1.50522 165.209 2.77908 163.527 3.85878L163.508 3.85505C160.677 5.67052 156.758 7.3179 152.993 6.95555C152.04 7.94173 151.02 9.08107 150.004 10.3176L150.013 10.3194Z" fill="white"/>
<path id="Vector_3" fill-rule="evenodd" clip-rule="evenodd" d="M152.313 33.5265C151.771 34.3932 151.155 36.0555 152.944 35.0207C155.122 33.7618 158.226 29.0439 158.226 29.0439H159.631C158.351 31.0155 156.925 32.8885 155.365 34.6472C153.157 37.0939 150.464 39.3166 148.566 39.0962C146.351 38.8384 147.046 35.9285 147.046 35.9285C147.046 35.9285 143.863 39.2904 141.678 39.0626C138.715 38.7339 139.619 35.073 139.619 35.073C139.619 35.073 136.257 39.1821 133.986 39.0588C130.407 38.8534 131.308 34.4865 132.301 31.4309C132.836 29.791 133.329 28.5022 133.329 28.5022C133.329 28.5022 132.974 28.5956 132.208 28.7077C131.808 28.7637 131.087 28.8048 131.087 28.8048C130.266 30.2531 129.371 31.6583 128.405 33.0147C127.214 34.5986 122.152 40.0413 119.163 38.9505C116.407 37.9419 117.318 33.7208 118.924 30.3588C121.267 25.4689 127.856 18.4424 131.655 19.3651C135.596 20.3214 131.745 27.5086 131.745 27.5086C131.745 27.5086 131.745 27.5347 131.786 27.5534C132.035 27.5983 132.291 27.5842 132.533 27.5123C133.026 27.4125 133.508 27.2688 133.975 27.0827C133.975 27.0827 137.935 18.7898 142.309 13.3658C146.683 7.94176 155.421 -1.38962 158.846 0.870384C159.683 1.42698 159.302 3.33957 158.174 5.66308C157.665 5.82386 157.149 5.95852 156.627 6.06652C157.253 5.02896 157.726 3.90675 158.032 2.73442C158.547 -0.0672369 152.003 5.83865 147.326 12.1966C144.513 16.0267 142.014 20.078 139.855 24.3109C140.7 23.7974 141.506 23.2231 142.268 22.5926C144.354 20.8623 146.337 19.0113 148.207 17.049C150.001 15.2007 151.684 13.2473 153.247 11.1992C153.747 11.1756 154.246 11.1245 154.741 11.046C153.031 13.3647 151.168 15.5661 149.164 17.6355C148.998 17.8006 148.832 17.9671 148.665 18.1345C146.941 19.8608 145.123 21.6811 143.523 23.0296C141.96 24.3662 140.312 25.5991 138.588 26.7203C138.588 26.7203 134.479 34.9684 136.721 35.4989C138.028 35.8127 140.613 31.8343 140.613 31.8343C140.613 31.8343 143.975 26.6905 146.015 24.3632C148.771 21.2254 151.158 19.4174 153.53 19.3688C154.92 19.3427 155.738 20.8257 155.738 20.8257L156.392 19.8133H160.415C160.415 19.8133 152.903 32.559 152.301 33.519L152.313 33.5265ZM154.834 22.2526C154.883 22.1661 154.923 22.0747 154.954 21.9799C154.935 21.8307 154.865 21.6925 154.756 21.5884C154.647 21.4844 154.506 21.4209 154.356 21.4084C153.736 21.3785 152.884 21.4981 150.662 23.9598C148.815 25.9981 147.226 28.2565 145.932 30.6838C144.659 33.011 144.143 34.7443 144.875 35.1926C145.113 35.3146 145.387 35.3426 145.645 35.271C146.142 35.1515 146.702 34.6883 147.557 33.6983C147.877 33.3274 148.226 32.8318 148.625 32.2654L148.629 32.2601C148.727 32.1209 148.828 31.9775 148.932 31.8306C150.404 29.8283 154.102 23.5227 154.834 22.2489V22.2526ZM131.726 24.9273C132.1 23.956 132.57 22.0509 131.588 21.3038C130.531 20.5081 127.852 22.3722 127.826 24.2922C127.8 26.2123 129.72 27.135 130.18 27.2583C130.441 27.3292 130.531 27.318 130.658 27.1088C131.064 26.4098 131.421 25.6834 131.726 24.9348V24.9273ZM129.69 28.4947C129.023 28.1865 128.401 27.7894 127.841 27.3143C127.277 26.8432 126.805 26.272 126.448 25.6296C126.417 25.5771 126.386 25.6114 126.353 25.6481C126.346 25.6558 126.339 25.6635 126.332 25.6707L126.331 25.6713C126.289 25.7135 126.122 25.8802 124.688 27.9792C123.246 30.0898 121.05 34.438 123.045 35.1813C124.322 35.6558 126.448 33.4182 127.613 31.9352C128.402 30.9008 129.117 29.8123 129.754 28.6778C129.814 28.5508 129.754 28.5209 129.69 28.4947Z" fill="white"/>
<path id="Vector_4" d="M107.042 10.1118H103.216L101.054 13.6083H104.879L107.042 10.1118Z" fill="white"/>
<path id="Vector_5" fill-rule="evenodd" clip-rule="evenodd" d="M98.0614 19.6787H99.451C99.451 19.6787 92.4282 29.8281 88.4573 29.3649C86.2421 29.1072 86.8996 26.3765 86.8996 26.3765C86.8996 26.3765 83.7804 30.0186 80.9227 29.2902C78.3303 28.6253 80.0038 24.3182 80.0038 24.3182C79.9596 24.3361 79.7967 24.4927 79.5382 24.741C78.0687 26.1531 73.5122 30.5314 70.1606 29.2416C66.0515 27.6503 68.1771 22.357 68.9615 20.7657C69.6264 19.4246 70.3623 18.1172 70.3623 18.1172C70.3623 18.1172 69.731 18.2965 69.3351 18.3862C68.9391 18.4758 68.3452 18.5916 68.3452 18.5916C68.3452 18.5916 66.3952 21.7631 65.2036 23.3432C64.0119 24.9234 58.9428 30.3623 55.9581 29.279C52.9734 28.1957 53.7168 24.0194 55.3903 20.6873C58.1098 15.3081 64.5648 8.69617 68.4647 9.68982C72.3646 10.6835 69.1408 17.06 69.1408 17.06C69.1408 17.06 69.9216 17.1609 71.7931 15.8833C72.566 15.3574 73.4087 14.5768 74.3077 13.7441C76.5501 11.6671 79.1432 9.26531 81.879 9.67862C83.687 9.95131 85.3717 11.8079 83.0669 15.3305C82.3198 16.4511 81.0908 17.4747 80.142 16.4736C79.5518 15.8572 80.0673 14.7179 80.6874 13.9409C80.9298 13.6242 81.2464 13.3721 81.6092 13.2066C81.9721 13.0412 82.3701 12.9675 82.7681 12.992C82.7681 12.992 83.4031 11.5314 81.7856 11.5613C80.4745 11.5875 77.1573 14.6394 75.2858 17.725C73.5898 20.5677 70.9936 25.394 73.5899 26.4475C75.9843 27.415 80.5417 22.0059 82.6523 19.1706C84.7629 16.3353 89.5668 9.91022 93.6012 9.65247C94.9908 9.56282 95.8163 10.8292 95.8163 10.8292L96.2833 10.082H100.31C100.31 10.082 92.727 22.7792 92.1331 23.7317C91.6661 24.4788 91.046 26.171 92.7644 25.2259C94.4827 24.2808 98.0614 19.6787 98.0614 19.6787ZM88.928 22.2076C90.5567 19.9663 95.0468 12.159 95.0468 12.159C95.0276 12.0097 94.9579 11.8715 94.8491 11.7675C94.7403 11.6635 94.5991 11.5999 94.4491 11.5875C93.829 11.5576 92.798 11.7668 90.7136 14.3443C88.6291 16.9218 87.0752 18.9726 85.9171 21.1056C84.6396 23.4329 84.083 25.0765 84.8152 25.521C85.0532 25.6413 85.3273 25.6693 85.5847 25.5995C86.0628 25.48 86.6867 25.0018 87.5421 24.0156C87.9455 23.5561 88.4013 22.936 88.9355 22.2076H88.928ZM68.4087 11.636C67.3515 10.8366 64.6731 12.7044 64.647 14.6245C64.6208 16.5445 67.0751 17.1422 67.3926 17.1572C67.4634 17.1758 67.5385 17.1706 67.606 17.1422C67.6736 17.1138 67.7299 17.0639 67.7661 17.0003C68.0535 16.4374 68.3116 15.8602 68.5394 15.2707C68.9129 14.2995 69.3799 12.3943 68.3974 11.6472L68.4087 11.636ZM66.8024 18.3712C66.0735 18.1433 65.3768 17.8232 64.7291 17.4187C64.0974 17.0107 63.5825 16.4456 63.2349 15.7787C63.2024 15.7234 63.167 15.7645 63.1337 15.8032C63.1288 15.8089 63.1239 15.8146 63.1191 15.8198C63.0818 15.8609 62.8651 16.1448 61.4269 18.2554C59.9887 20.366 57.8557 24.6843 59.8543 25.4239C61.1318 25.8983 63.2798 23.6533 64.4415 22.1703C65.3169 21.0127 66.1263 19.8067 66.8659 18.558C66.9144 18.431 66.8659 18.4011 66.7949 18.3787L66.8024 18.3712Z" fill="white"/>
<path id="Vector_6" d="M95.8649 40C92.8941 37.9439 89.337 36.9059 85.7266 37.0415C84.7493 37.0678 83.7921 37.3244 82.9326 37.7905C82.0732 38.2566 81.336 38.9189 80.7808 39.7236C79.2417 37.0377 76.201 35.3903 71.4979 35.4277C67.516 35.4727 63.5495 36.4565 59.8172 37.3822C56.4277 38.2228 53.2314 39.0156 50.3921 39.0138C44.6618 39.0138 40.4892 35.4128 40.6274 29.0212C40.874 17.8146 50.3398 7.72866 57.4374 3.17877C61.5054 0.563887 64.9084 -0.205635 67.1498 0.0446464C68.7747 0.223952 70.7284 2.10293 69.4957 4.87097C67.684 8.92403 65.1812 8.5841 65.2745 6.64908C65.3135 6.1443 65.4716 5.65594 65.7359 5.22411C66.0002 4.79228 66.3631 4.42929 66.7949 4.16495C67.2531 3.91551 67.7674 3.78695 68.2891 3.79139C68.6627 3.48882 68.9204 1.27364 66.0067 2.00207C63.093 2.7305 59.5442 5.59566 56.1972 9.29385C52.8501 12.992 47.6428 19.9775 46.354 27.3141C45.7526 30.7172 46.1523 36.9219 54.1987 36.8547C57.3009 36.8292 61.0755 35.8881 65.1399 34.8747C70.0267 33.6562 75.3325 32.3333 80.3923 32.372C83.6195 32.3585 86.7892 33.2264 89.5593 34.8823C91.9575 36.3765 94.8301 38.5133 95.8499 39.9851L95.8649 40Z" fill="white"/>
<path id="Vector_7" d="M22.5552 25.4688H30.6314L30.3662 23.6309H24.6546V21.3896H28.5022V19.5219H24.6546V17.6167H30.2579L30.5268 15.7788H22.5589L22.5552 25.4688Z" fill="white"/>
<path id="Vector_8" d="M10.6016 25.4685H12.7009V21.1839H17.6468V25.4648H19.7536V15.8084H17.6505V19.3086H12.7009V15.8047H10.6128L10.6016 25.4685Z" fill="white"/>
<path id="Vector_9" d="M0 17.6914H3.22004V25.4576H5.32688V17.6914H8.54692V15.8013H0V17.6914Z" fill="white"/>
<path id="Vector_10" d="M246.468 15.8308H248.787L244.966 22.241V25.4872H242.859V22.2821L239 15.8271H241.372L243.931 20.3471L246.468 15.8308Z" fill="white"/>
<path id="Vector_11" d="M235.295 22.3682V15.831L237.345 15.8198V25.4762H235.227L230.539 18.8232V25.4762H228.488V15.8198H230.67L235.295 22.3682Z" fill="white"/>
<path id="Vector_12" fill-rule="evenodd" clip-rule="evenodd" d="M226.643 25.4797H224.428L223.625 23.3243H219.385L218.582 25.4685H216.382L220.225 15.8159H222.814L226.643 25.4797ZM221.518 17.6799L220.072 21.5089L222.952 21.5051L221.518 17.6799Z" fill="white"/>
<path id="Vector_13" fill-rule="evenodd" clip-rule="evenodd" d="M208.003 15.8126H212.967C213.613 15.7917 214.254 15.9276 214.835 16.2085C215.319 16.4483 215.72 16.8284 215.986 17.2993C216.241 17.7834 216.375 18.3226 216.375 18.8701C216.375 19.4176 216.241 19.9568 215.986 20.4409C215.719 20.9123 215.318 21.2944 214.835 21.5391C214.254 21.8214 213.613 21.9585 212.967 21.9388H210.11V25.4652H208.003V15.8126ZM210.125 20.0748H212.93C213.284 20.0979 213.633 19.9842 213.905 19.7573C214.13 19.5166 214.255 19.1995 214.255 18.8701C214.255 18.5407 214.13 18.2236 213.905 17.9829C213.628 17.762 213.28 17.6516 212.926 17.6729H210.125V20.0748Z" fill="white"/>
<path id="Vector_14" d="M202.373 15.8125H205.201L205.205 25.4726H203.165V18.375L200.199 25.3231H198.791L195.859 18.5506V25.4576H193.819V15.8125H196.647L199.538 22.5364L202.373 15.8125Z" fill="white"/>
<path id="Vector_15" fill-rule="evenodd" clip-rule="evenodd" d="M189.026 24.9904C188.206 25.4226 187.29 25.6411 186.363 25.6254L186.352 25.6292C185.425 25.6438 184.509 25.4255 183.688 24.9941C182.922 24.5847 182.287 23.9687 181.854 23.216C181.418 22.4229 181.189 21.5324 181.189 20.6273C181.189 19.7221 181.418 18.8316 181.854 18.0385C182.288 17.2857 182.925 16.6697 183.692 16.2604C184.517 15.8417 185.43 15.6235 186.355 15.6235C187.281 15.6235 188.193 15.8417 189.019 16.2604C189.797 16.6652 190.444 17.2816 190.887 18.0385C191.321 18.8314 191.549 19.7211 191.549 20.6254C191.549 21.5297 191.321 22.4194 190.887 23.2123C190.446 23.9681 189.801 24.5845 189.026 24.9904ZM184.831 23.3243C185.297 23.5918 185.827 23.7286 186.364 23.7203C186.902 23.7321 187.433 23.5951 187.898 23.3243C188.346 23.0659 188.713 22.6866 188.955 22.2298C189.206 21.7328 189.336 21.1839 189.336 20.6273C189.336 20.0706 189.206 19.5218 188.955 19.0247C188.715 18.5643 188.348 18.1821 187.898 17.9227C187.429 17.6644 186.902 17.5289 186.367 17.5289C185.831 17.5289 185.304 17.6644 184.835 17.9227C184.387 18.175 184.018 18.5477 183.77 18.9986C183.511 19.492 183.382 20.0438 183.397 20.6011C183.384 21.1582 183.513 21.7095 183.77 22.2037C184.012 22.6695 184.379 23.0579 184.831 23.3243Z" fill="white"/>
<path id="Vector_16" d="M178.421 25.256C177.713 25.5113 176.966 25.6378 176.213 25.6296L176.225 25.6408C175.249 25.6581 174.283 25.4335 173.415 24.987C172.616 24.5758 171.945 23.952 171.476 23.1843C171.008 22.4165 170.76 21.5345 170.76 20.6351C170.76 19.7357 171.008 18.8538 171.476 18.086C171.945 17.3183 172.616 16.6945 173.415 16.2832C174.273 15.8415 175.226 15.6182 176.191 15.6333C176.944 15.6198 177.692 15.7465 178.399 16.0068C179.038 16.2404 179.607 16.6324 180.053 17.1461L178.742 18.603C178.408 18.2538 178.01 17.9722 177.569 17.7737C177.151 17.5982 176.701 17.5092 176.247 17.5122C175.664 17.5045 175.09 17.646 174.577 17.9231C174.092 18.1843 173.687 18.5715 173.404 19.0438C173.108 19.5201 172.954 20.0707 172.96 20.6314C172.952 21.1841 173.098 21.728 173.381 22.2029C173.663 22.6777 174.072 23.0647 174.562 23.321C175.083 23.6005 175.667 23.742 176.258 23.7319C176.73 23.7398 177.199 23.65 177.635 23.4681C178.071 23.2861 178.464 23.016 178.791 22.6747L180.106 24.1092C179.652 24.6297 179.072 25.0247 178.421 25.256Z" fill="white"/>
</g>
<defs>
<clipPath id="clip0_18_1679">
<rect width="249" height="40" fill="white"/>
</clipPath>
</defs>
</svg>
